<svg width="231" height="48" viewBox="0 0 231 48" fill="none" xmlns="http://www.w3.org/2000/svg">
<rect x="2" y="6" width="30" height="26" stroke="#2563EB" stroke-width="2.66667" stroke-linejoin="round"/>
<path d="M32 16H40L46 22V32H32V16Z" stroke="#2563EB" stroke-width="2.66667" stroke-linejoin="round"/>
<circle cx="11" cy="37" r="5" stroke="#2563EB" stroke-width="2.66667" stroke-linejoin="round"/>
<circle cx="37" cy="37" r="5" stroke="#2563EB" stroke-width="2.66667" stroke-linejoin="round"/>
<path d="M57.7699 14.1364H63.0795L68.6875 27.8182H68.9261L74.5341 14.1364H79.8438V34.5H75.6676V21.2457H75.4986L70.2287 34.4006H67.3849L62.1151 21.196H61.946V34.5H57.7699V14.1364ZM90.2717 34.7983C88.7006 34.7983 87.3484 34.4801 86.2148 33.8438C85.0879 33.2008 84.2196 32.2926 83.6097 31.1193C82.9999 29.9394 82.695 28.544 82.695 26.9332C82.695 25.3622 82.9999 23.9834 83.6097 22.7969C84.2196 21.6103 85.078 20.6856 86.185 20.0227C87.2987 19.3598 88.6045 19.0284 90.1026 19.0284C91.1102 19.0284 92.0482 19.1908 92.9165 19.5156C93.7915 19.8338 94.5539 20.3144 95.2035 20.9574C95.8597 21.6004 96.3701 22.4091 96.7347 23.3835C97.0993 24.3513 97.2816 25.4848 97.2816 26.7841V27.9474H84.3853V25.3224H93.2944C93.2944 24.7126 93.1618 24.1723 92.8967 23.7017C92.6315 23.2311 92.2636 22.8632 91.793 22.598C91.329 22.3262 90.7887 22.1903 90.1722 22.1903C89.5292 22.1903 88.9592 22.3395 88.462 22.6378C87.9715 22.9295 87.587 23.3239 87.3086 23.821C87.0302 24.3116 86.8877 24.8584 86.881 25.4616V27.9574C86.881 28.7131 87.0202 29.366 87.2987 29.9162C87.5837 30.4664 87.9847 30.8906 88.5018 31.1889C89.0188 31.4872 89.632 31.6364 90.3413 31.6364C90.8119 31.6364 91.2428 31.5701 91.6339 31.4375C92.025 31.3049 92.3597 31.1061 92.6381 30.8409C92.9165 30.5758 93.1287 30.2509 93.2745 29.8665L97.1921 30.125C96.9933 31.0663 96.5856 31.8883 95.9691 32.5909C95.3593 33.2869 94.5704 33.8305 93.6026 34.2216C92.6415 34.6061 91.5311 34.7983 90.2717 34.7983ZM105.674 34.7486C104.514 34.7486 103.463 34.4503 102.522 33.8537C101.587 33.2505 100.845 32.3655 100.294 31.1989C99.7508 30.0256 99.479 28.5871 99.479 26.8835C99.479 25.1335 99.7608 23.6785 100.324 22.5185C100.888 21.3518 101.637 20.4801 102.571 19.9034C103.513 19.3201 104.543 19.0284 105.664 19.0284C106.519 19.0284 107.231 19.1742 107.801 19.4659C108.378 19.7509 108.842 20.1089 109.194 20.5398C109.551 20.964 109.823 21.3816 110.009 21.7926H110.138V14.1364H114.364V34.5H110.188V32.054H110.009C109.81 32.4782 109.528 32.8991 109.164 33.3168C108.806 33.7277 108.338 34.0691 107.762 34.3409C107.192 34.6127 106.496 34.7486 105.674 34.7486ZM107.016 31.3778C107.699 31.3778 108.275 31.1922 108.746 30.821C109.223 30.4432 109.588 29.9162 109.84 29.2401C110.098 28.5639 110.228 27.7718 110.228 26.8636C110.228 25.9555 110.102 25.1667 109.85 24.4972C109.598 23.8277 109.233 23.3106 108.756 22.946C108.279 22.5814 107.699 22.3991 107.016 22.3991C106.32 22.3991 105.733 22.5881 105.256 22.9659C104.779 23.3437 104.417 23.8674 104.172 24.5369C103.927 25.2064 103.804 25.982 103.804 26.8636C103.804 27.7519 103.927 28.5374 104.172 29.2202C104.424 29.8963 104.785 30.4266 105.256 30.8111C105.733 31.1889 106.32 31.3778 107.016 31.3778ZM117.847 34.5V19.2273H122.082V34.5H117.847ZM119.974 17.2585C119.345 17.2585 118.804 17.0497 118.354 16.6321C117.91 16.2079 117.688 15.7008 117.688 15.1108C117.688 14.5275 117.91 14.027 118.354 13.6094C118.804 13.1851 119.345 12.973 119.974 12.973C120.604 12.973 121.141 13.1851 121.585 13.6094C122.036 14.027 122.261 14.5275 122.261 15.1108C122.261 15.7008 122.036 16.2079 121.585 16.6321C121.141 17.0497 120.604 17.2585 119.974 17.2585ZM129.831 34.7884C128.856 34.7884 127.988 34.6193 127.225 34.2812C126.463 33.9366 125.86 33.4295 125.416 32.7599C124.978 32.0838 124.76 31.242 124.76 30.2344C124.76 29.3859 124.915 28.6733 125.227 28.0966C125.538 27.5199 125.963 27.0559 126.5 26.7045C127.037 26.3532 127.646 26.0881 128.329 25.9091C129.019 25.7301 129.741 25.6042 130.497 25.5312C131.385 25.4384 132.101 25.3523 132.645 25.2727C133.188 25.1866 133.583 25.0606 133.828 24.8949C134.073 24.7292 134.196 24.4839 134.196 24.1591V24.0994C134.196 23.4697 133.997 22.9825 133.599 22.6378C133.208 22.2931 132.651 22.1207 131.929 22.1207C131.166 22.1207 130.56 22.2898 130.109 22.6278C129.658 22.9593 129.36 23.3769 129.214 23.8807L125.297 23.5625C125.495 22.6345 125.886 21.8324 126.47 21.1562C127.053 20.4735 127.806 19.9498 128.727 19.5852C129.655 19.214 130.729 19.0284 131.949 19.0284C132.797 19.0284 133.609 19.1278 134.385 19.3267C135.167 19.5256 135.859 19.8338 136.463 20.2514C137.073 20.669 137.553 21.206 137.904 21.8622C138.256 22.5118 138.431 23.2907 138.431 24.1989V34.5H134.414V32.3821H134.295C134.05 32.8594 133.722 33.2803 133.311 33.6449C132.9 34.0028 132.406 34.2846 131.829 34.4901C131.252 34.6889 130.586 34.7884 129.831 34.7884ZM131.044 31.8651C131.667 31.8651 132.217 31.7424 132.694 31.4972C133.172 31.2453 133.546 30.9072 133.818 30.483C134.09 30.0587 134.225 29.5781 134.225 29.0412V27.4205C134.093 27.5066 133.911 27.5862 133.679 27.6591C133.453 27.7254 133.198 27.7884 132.913 27.848C132.628 27.901 132.343 27.9508 132.058 27.9972C131.773 28.0369 131.514 28.0734 131.282 28.1065C130.785 28.1795 130.351 28.2955 129.98 28.4545C129.609 28.6136 129.32 28.8291 129.115 29.1009C128.909 29.366 128.806 29.6974 128.806 30.0952C128.806 30.6719 129.015 31.1127 129.433 31.4176C129.857 31.7159 130.394 31.8651 131.044 31.8651ZM159.765 21.2656H155.409C155.33 20.7022 155.167 20.2017 154.922 19.7642C154.677 19.3201 154.362 18.9422 153.978 18.6307C153.593 18.3191 153.149 18.0805 152.645 17.9148C152.148 17.7491 151.608 17.6662 151.025 17.6662C149.971 17.6662 149.052 17.928 148.27 18.4517C147.488 18.9687 146.882 19.7244 146.451 20.7188C146.02 21.7064 145.804 22.9062 145.804 24.3182C145.804 25.7699 146.02 26.9896 146.451 27.9773C146.888 28.965 147.498 29.7107 148.28 30.2145C149.062 30.7183 149.967 30.9702 150.995 30.9702C151.571 30.9702 152.105 30.8939 152.596 30.7415C153.093 30.589 153.533 30.367 153.918 30.0753C154.302 29.777 154.621 29.4157 154.873 28.9915C155.131 28.5672 155.31 28.0833 155.409 27.5398L159.765 27.5597C159.652 28.4943 159.37 29.3958 158.919 30.2642C158.475 31.1259 157.875 31.8982 157.12 32.581C156.371 33.2571 155.476 33.794 154.435 34.1918C153.401 34.5829 152.231 34.7784 150.925 34.7784C149.109 34.7784 147.485 34.3674 146.053 33.5455C144.628 32.7235 143.501 31.5336 142.672 29.9759C141.85 28.4181 141.439 26.5322 141.439 24.3182C141.439 22.0975 141.857 20.2083 142.692 18.6506C143.527 17.0928 144.661 15.9062 146.093 15.0909C147.525 14.2689 149.135 13.858 150.925 13.858C152.105 13.858 153.199 14.0237 154.206 14.3551C155.221 14.6866 156.119 15.1705 156.901 15.8068C157.683 16.4366 158.319 17.2088 158.81 18.1236C159.307 19.0384 159.625 20.0857 159.765 21.2656ZM167.127 34.7884C166.153 34.7884 165.285 34.6193 164.522 34.2812C163.76 33.9366 163.157 33.4295 162.713 32.7599C162.275 32.0838 162.056 31.242 162.056 30.2344C162.056 29.3859 162.212 28.6733 162.524 28.0966C162.835 27.5199 163.26 27.0559 163.797 26.7045C164.333 26.3532 164.943 26.0881 165.626 25.9091C166.315 25.7301 167.038 25.6042 167.794 25.5312C168.682 25.4384 169.398 25.3523 169.941 25.2727C170.485 25.1866 170.879 25.0606 171.125 24.8949C171.37 24.7292 171.493 24.4839 171.493 24.1591V24.0994C171.493 23.4697 171.294 22.9825 170.896 22.6378C170.505 22.2931 169.948 22.1207 169.225 22.1207C168.463 22.1207 167.857 22.2898 167.406 22.6278C166.955 22.9593 166.657 23.3769 166.511 23.8807L162.593 23.5625C162.792 22.6345 163.183 21.8324 163.767 21.1562C164.35 20.4735 165.102 19.9498 166.024 19.5852C166.952 19.214 168.026 19.0284 169.245 19.0284C170.094 19.0284 170.906 19.1278 171.681 19.3267C172.464 19.5256 173.156 19.8338 173.76 20.2514C174.369 20.669 174.85 21.206 175.201 21.8622C175.553 22.5118 175.728 23.2907 175.728 24.1989V34.5H171.711V32.3821H171.592C171.347 32.8594 171.019 33.2803 170.608 33.6449C170.197 34.0028 169.703 34.2846 169.126 34.4901C168.549 34.6889 167.883 34.7884 167.127 34.7884ZM168.341 31.8651C168.964 31.8651 169.514 31.7424 169.991 31.4972C170.468 31.2453 170.843 30.9072 171.115 30.483C171.386 30.0587 171.522 29.5781 171.522 29.0412V27.4205C171.39 27.5066 171.208 27.5862 170.975 27.6591C170.75 27.7254 170.495 27.7884 170.21 27.848C169.925 27.901 169.64 27.9508 169.355 27.9972C169.07 28.0369 168.811 28.0734 168.579 28.1065C168.082 28.1795 167.648 28.2955 167.277 28.4545C166.905 28.6136 166.617 28.8291 166.412 29.1009C166.206 29.366 166.103 29.6974 166.103 30.0952C166.103 30.6719 166.312 31.1127 166.73 31.4176C167.154 31.7159 167.691 31.8651 168.341 31.8651ZM179.015 34.5V19.2273H183.121V21.892H183.28C183.559 20.9441 184.026 20.2282 184.682 19.7443C185.338 19.2538 186.094 19.0085 186.949 19.0085C187.161 19.0085 187.39 19.0218 187.635 19.0483C187.881 19.0748 188.096 19.1113 188.282 19.1577V22.9162C188.083 22.8565 187.808 22.8035 187.456 22.7571C187.105 22.7107 186.783 22.6875 186.492 22.6875C185.869 22.6875 185.312 22.8234 184.821 23.0952C184.337 23.3603 183.953 23.7315 183.668 24.2088C183.39 24.6861 183.25 25.2363 183.25 25.8594V34.5H179.015ZM196.641 40.5455C195.269 40.5455 194.093 40.3565 193.112 39.9787C192.137 39.6075 191.362 39.1004 190.785 38.4574C190.208 37.8144 189.834 37.0919 189.661 36.2898L193.579 35.7628C193.698 36.0677 193.887 36.3527 194.146 36.6179C194.404 36.883 194.746 37.0952 195.17 37.2543C195.601 37.42 196.124 37.5028 196.741 37.5028C197.662 37.5028 198.421 37.2775 199.018 36.8267C199.621 36.3826 199.923 35.6368 199.923 34.5895V31.7955H199.744C199.558 32.2197 199.28 32.6207 198.908 32.9986C198.537 33.3764 198.06 33.6847 197.477 33.9233C196.893 34.1619 196.197 34.2812 195.388 34.2812C194.242 34.2812 193.198 34.0161 192.256 33.4858C191.322 32.9489 190.576 32.1302 190.019 31.0298C189.469 29.9228 189.194 28.5241 189.194 26.8338C189.194 25.1037 189.476 23.6586 190.039 22.4986C190.603 21.3385 191.352 20.4702 192.286 19.8935C193.228 19.3168 194.258 19.0284 195.379 19.0284C196.234 19.0284 196.95 19.1742 197.526 19.4659C198.103 19.7509 198.567 20.1089 198.918 20.5398C199.276 20.964 199.551 21.3816 199.744 21.7926H199.903V19.2273H204.109V34.6491C204.109 35.9484 203.79 37.0355 203.154 37.9105C202.518 38.7855 201.636 39.4418 200.509 39.8793C199.389 40.3234 198.1 40.5455 196.641 40.5455ZM196.731 31.0994C197.414 31.0994 197.99 30.9304 198.461 30.5923C198.938 30.2476 199.303 29.7571 199.555 29.1207C199.813 28.4777 199.942 27.7088 199.942 26.8139C199.942 25.919 199.817 25.1435 199.565 24.4872C199.313 23.8243 198.948 23.3106 198.471 22.946C197.994 22.5814 197.414 22.3991 196.731 22.3991C196.035 22.3991 195.448 22.5881 194.971 22.9659C194.494 23.3371 194.132 23.8542 193.887 24.517C193.642 25.1799 193.519 25.9455 193.519 26.8139C193.519 27.6955 193.642 28.4579 193.887 29.1009C194.139 29.7372 194.5 30.2311 194.971 30.5824C195.448 30.9271 196.035 31.0994 196.731 31.0994ZM214.38 34.7983C212.835 34.7983 211.5 34.4702 210.373 33.8139C209.253 33.151 208.388 32.2296 207.778 31.0497C207.168 29.8632 206.863 28.4877 206.863 26.9233C206.863 25.3456 207.168 23.9669 207.778 22.7869C208.388 21.6004 209.253 20.679 210.373 20.0227C211.5 19.3598 212.835 19.0284 214.38 19.0284C215.924 19.0284 217.257 19.3598 218.377 20.0227C219.504 20.679 220.372 21.6004 220.982 22.7869C221.592 23.9669 221.897 25.3456 221.897 26.9233C221.897 28.4877 221.592 29.8632 220.982 31.0497C220.372 32.2296 219.504 33.151 218.377 33.8139C217.257 34.4702 215.924 34.7983 214.38 34.7983ZM214.4 31.517C215.103 31.517 215.689 31.3182 216.16 30.9205C216.63 30.5161 216.985 29.9659 217.224 29.2699C217.469 28.5739 217.592 27.7817 217.592 26.8935C217.592 26.0052 217.469 25.2131 217.224 24.517C216.985 23.821 216.63 23.2708 216.16 22.8665C215.689 22.4621 215.103 22.2599 214.4 22.2599C213.691 22.2599 213.094 22.4621 212.61 22.8665C212.133 23.2708 211.772 23.821 211.526 24.517C211.288 25.2131 211.168 26.0052 211.168 26.8935C211.168 27.7817 211.288 28.5739 211.526 29.2699C211.772 29.9659 212.133 30.5161 212.61 30.9205C213.094 31.3182 213.691 31.517 214.4 31.517Z" fill="white"/>
</svg>
