<svg width="160" height="32" viewBox="0 0 160 32" fill="none" xmlns="http://www.w3.org/2000/svg">
<rect x="1.33334" y="4" width="20" height="17.3333" stroke="white" stroke-width="2.66667" stroke-linejoin="round"/>
<path d="M21.3333 10.6667H26.6667L30.6667 14.6667V21.3333H21.3333V10.6667Z" stroke="white" stroke-width="2.66667" stroke-linejoin="round"/>
<circle cx="7.33333" cy="24.6667" r="3.33333" stroke="white" stroke-width="2.66667" stroke-linejoin="round"/>
<circle cx="24.6667" cy="24.6667" r="3.33333" stroke="white" stroke-width="2.66667" stroke-linejoin="round"/>
<path d="M41.1378 9.90909H44.5511L48.1562 18.7045H48.3097L51.9148 9.90909H55.3281V23H52.6435V14.4794H52.5348L49.147 22.9361H47.3189L43.9311 14.4474H43.8224V23H41.1378V9.90909ZM62.0318 23.1918C61.0218 23.1918 60.1525 22.9872 59.4238 22.5781C58.6994 22.1648 58.1412 21.581 57.7491 20.8267C57.3571 20.0682 57.161 19.1712 57.161 18.1357C57.161 17.1257 57.3571 16.2393 57.7491 15.4766C58.1412 14.7138 58.693 14.1193 59.4047 13.6932C60.1206 13.267 60.96 13.054 61.9231 13.054C62.5708 13.054 63.1738 13.1584 63.7321 13.3672C64.2946 13.5717 64.7846 13.8807 65.2022 14.294C65.6241 14.7074 65.9522 15.2273 66.1866 15.8537C66.421 16.4759 66.5382 17.2045 66.5382 18.0398V18.7876H58.2477V17.1001H63.975C63.975 16.7081 63.8897 16.3608 63.7193 16.0582C63.5488 15.7557 63.3123 15.5192 63.0098 15.3487C62.7115 15.174 62.3642 15.0866 61.9679 15.0866C61.5545 15.0866 61.188 15.1825 60.8684 15.3743C60.5531 15.5618 60.3059 15.8153 60.127 16.1349C59.948 16.4503 59.8564 16.8018 59.8521 17.1896V18.794C59.8521 19.2798 59.9416 19.6996 60.1206 20.0533C60.3038 20.407 60.5616 20.6797 60.894 20.8714C61.2264 21.0632 61.6206 21.1591 62.0765 21.1591C62.3791 21.1591 62.6561 21.1165 62.9075 21.0312C63.1589 20.946 63.3741 20.8182 63.5531 20.6477C63.7321 20.4773 63.8684 20.2685 63.9622 20.0213L66.4806 20.1875C66.3528 20.7926 66.0907 21.321 65.6944 21.7727C65.3024 22.2202 64.7953 22.5696 64.1731 22.821C63.5552 23.0682 62.8414 23.1918 62.0318 23.1918ZM71.9331 23.1598C71.1873 23.1598 70.5119 22.968 69.9068 22.5845C69.3059 22.1967 68.8287 21.6278 68.475 20.8778C68.1255 20.1236 67.9508 19.1989 67.9508 18.1037C67.9508 16.9787 68.1319 16.0433 68.4941 15.2976C68.8564 14.5476 69.3379 13.9872 69.9387 13.6165C70.5439 13.2415 71.2065 13.054 71.9267 13.054C72.4764 13.054 72.9345 13.1477 73.301 13.3352C73.6717 13.5185 73.97 13.7486 74.1958 14.0256C74.426 14.2983 74.6007 14.5668 74.72 14.831H74.8031V9.90909H77.5197V23H74.8351V21.4276H74.72C74.5922 21.7003 74.411 21.9709 74.1767 22.2393C73.9466 22.5036 73.6461 22.723 73.2754 22.8977C72.9089 23.0724 72.4615 23.1598 71.9331 23.1598ZM72.796 20.9929C73.2349 20.9929 73.6056 20.8736 73.9082 20.6349C74.215 20.392 74.4494 20.0533 74.6113 19.6186C74.7775 19.1839 74.8606 18.6747 74.8606 18.0909C74.8606 17.5071 74.7797 17 74.6177 16.5696C74.4558 16.1392 74.2214 15.8068 73.9146 15.5724C73.6078 15.3381 73.2349 15.2209 72.796 15.2209C72.3485 15.2209 71.9714 15.3423 71.6646 15.5852C71.3578 15.8281 71.1255 16.1648 70.9679 16.5952C70.8102 17.0256 70.7314 17.5241 70.7314 18.0909C70.7314 18.6619 70.8102 19.1669 70.9679 19.6058C71.1298 20.0405 71.362 20.3814 71.6646 20.6286C71.9714 20.8714 72.3485 20.9929 72.796 20.9929ZM79.7585 23V13.1818H82.4815V23H79.7585ZM81.1264 11.9162C80.7216 11.9162 80.3743 11.782 80.0845 11.5135C79.799 11.2408 79.6562 10.9148 79.6562 10.5355C79.6562 10.1605 79.799 9.83878 80.0845 9.57031C80.3743 9.29758 80.7216 9.16122 81.1264 9.16122C81.5313 9.16122 81.8764 9.29758 82.1619 9.57031C82.4517 9.83878 82.5966 10.1605 82.5966 10.5355C82.5966 10.9148 82.4517 11.2408 82.1619 11.5135C81.8764 11.782 81.5313 11.9162 81.1264 11.9162ZM87.4625 23.1854C86.8361 23.1854 86.2779 23.0767 85.7878 22.8594C85.2978 22.6378 84.91 22.3118 84.6245 21.8814C84.3432 21.4467 84.2026 20.9055 84.2026 20.2578C84.2026 19.7124 84.3027 19.2543 84.503 18.8835C84.7033 18.5128 84.976 18.2145 85.3212 17.9886C85.6664 17.7628 86.0584 17.5923 86.4973 17.4773C86.9405 17.3622 87.405 17.2812 87.8908 17.2344C88.4618 17.1747 88.9221 17.1193 89.2715 17.0682C89.6209 17.0128 89.8745 16.9318 90.0321 16.8253C90.1898 16.7187 90.2686 16.5611 90.2686 16.3523V16.3139C90.2686 15.9091 90.1408 15.5959 89.8851 15.3743C89.6337 15.1527 89.2757 15.0419 88.8113 15.0419C88.3212 15.0419 87.9313 15.1506 87.6415 15.3679C87.3517 15.581 87.16 15.8494 87.0662 16.1733L84.5478 15.9688C84.6756 15.3722 84.927 14.8565 85.302 14.4219C85.677 13.983 86.1607 13.6463 86.753 13.4119C87.3496 13.1733 88.04 13.054 88.824 13.054C89.3695 13.054 89.8915 13.1179 90.3901 13.2457C90.8929 13.3736 91.3382 13.5717 91.726 13.8402C92.1181 14.1087 92.427 14.4538 92.6529 14.8757C92.8787 15.2933 92.9917 15.794 92.9917 16.3778V23H90.4093V21.6385H90.3326C90.1749 21.9453 89.964 22.2159 89.6998 22.4503C89.4355 22.6804 89.1181 22.8615 88.7473 22.9936C88.3766 23.1214 87.9483 23.1854 87.4625 23.1854ZM88.2424 21.3061C88.6429 21.3061 88.9966 21.2273 89.3034 21.0696C89.6103 20.9077 89.851 20.6903 90.0257 20.4176C90.2005 20.1449 90.2878 19.8359 90.2878 19.4908V18.4489C90.2026 18.5043 90.0854 18.5554 89.9363 18.6023C89.7914 18.6449 89.6273 18.6854 89.4441 18.7237C89.2608 18.7578 89.0776 18.7898 88.8944 18.8196C88.7111 18.8452 88.5449 18.8686 88.3958 18.8899C88.0762 18.9368 87.7971 19.0114 87.5584 19.1136C87.3198 19.2159 87.1344 19.3544 87.0023 19.5291C86.8702 19.6996 86.8042 19.9126 86.8042 20.1683C86.8042 20.5391 86.9384 20.8224 87.2069 21.0185C87.4796 21.2102 87.8248 21.3061 88.2424 21.3061ZM106.706 14.4922H103.906C103.855 14.13 103.751 13.8082 103.593 13.527C103.435 13.2415 103.233 12.9986 102.986 12.7983C102.738 12.598 102.453 12.4446 102.129 12.3381C101.809 12.2315 101.462 12.1783 101.087 12.1783C100.41 12.1783 99.8194 12.3466 99.3166 12.6832C98.8137 13.0156 98.4238 13.5014 98.1468 14.1406C97.8699 14.7756 97.7314 15.5469 97.7314 16.4545C97.7314 17.3878 97.8699 18.1719 98.1468 18.8068C98.4281 19.4418 98.8201 19.9212 99.323 20.245C99.8258 20.5689 100.407 20.7308 101.068 20.7308C101.439 20.7308 101.782 20.6818 102.097 20.5838C102.417 20.4858 102.7 20.343 102.947 20.1555C103.194 19.9638 103.399 19.7315 103.561 19.4588C103.727 19.1861 103.842 18.875 103.906 18.5256L106.706 18.5384C106.633 19.1392 106.452 19.7188 106.162 20.277C105.877 20.831 105.491 21.3274 105.006 21.7663C104.524 22.201 103.949 22.5462 103.28 22.8018C102.615 23.0533 101.863 23.179 101.023 23.179C99.8556 23.179 98.8116 22.9148 97.8912 22.3864C96.975 21.858 96.2505 21.093 95.7179 20.0916C95.1895 19.0902 94.9252 17.8778 94.9252 16.4545C94.9252 15.027 95.1937 13.8125 95.7306 12.8111C96.2676 11.8097 96.9963 11.0469 97.9167 10.5227C98.8372 9.99432 99.8727 9.73011 101.023 9.73011C101.782 9.73011 102.485 9.83665 103.133 10.0497C103.785 10.2628 104.362 10.5739 104.865 10.983C105.368 11.3878 105.777 11.8842 106.092 12.4723C106.412 13.0604 106.616 13.7337 106.706 14.4922ZM111.439 23.1854C110.813 23.1854 110.254 23.0767 109.764 22.8594C109.274 22.6378 108.887 22.3118 108.601 21.8814C108.32 21.4467 108.179 20.9055 108.179 20.2578C108.179 19.7124 108.279 19.2543 108.48 18.8835C108.68 18.5128 108.953 18.2145 109.298 17.9886C109.643 17.7628 110.035 17.5923 110.474 17.4773C110.917 17.3622 111.382 17.2812 111.867 17.2344C112.438 17.1747 112.899 17.1193 113.248 17.0682C113.597 17.0128 113.851 16.9318 114.009 16.8253C114.166 16.7187 114.245 16.5611 114.245 16.3523V16.3139C114.245 15.9091 114.117 15.5959 113.862 15.3743C113.61 15.1527 113.252 15.0419 112.788 15.0419C112.298 15.0419 111.908 15.1506 111.618 15.3679C111.328 15.581 111.137 15.8494 111.043 16.1733L108.524 15.9688C108.652 15.3722 108.904 14.8565 109.279 14.4219C109.654 13.983 110.137 13.6463 110.73 13.4119C111.326 13.1733 112.017 13.054 112.801 13.054C113.346 13.054 113.868 13.1179 114.367 13.2457C114.869 13.3736 115.315 13.5717 115.703 13.8402C116.095 14.1087 116.404 14.4538 116.629 14.8757C116.855 15.2933 116.968 15.794 116.968 16.3778V23H114.386V21.6385H114.309C114.151 21.9453 113.941 22.2159 113.676 22.4503C113.412 22.6804 113.095 22.8615 112.724 22.9936C112.353 23.1214 111.925 23.1854 111.439 23.1854ZM112.219 21.3061C112.619 21.3061 112.973 21.2273 113.28 21.0696C113.587 20.9077 113.828 20.6903 114.002 20.4176C114.177 20.1449 114.264 19.8359 114.264 19.4908V18.4489C114.179 18.5043 114.062 18.5554 113.913 18.6023C113.768 18.6449 113.604 18.6854 113.421 18.7237C113.237 18.7578 113.054 18.7898 112.871 18.8196C112.688 18.8452 112.521 18.8686 112.372 18.8899C112.053 18.9368 111.774 19.0114 111.535 19.1136C111.296 19.2159 111.111 19.3544 110.979 19.5291C110.847 19.6996 110.781 19.9126 110.781 20.1683C110.781 20.5391 110.915 20.8224 111.183 21.0185C111.456 21.2102 111.801 21.3061 112.219 21.3061ZM119.081 23V13.1818H121.721V14.8949H121.823C122.002 14.2855 122.302 13.8253 122.724 13.5142C123.146 13.1989 123.632 13.0412 124.182 13.0412C124.318 13.0412 124.465 13.0497 124.623 13.0668C124.78 13.0838 124.919 13.1072 125.038 13.1371V15.5533C124.91 15.5149 124.733 15.4808 124.508 15.451C124.282 15.4212 124.075 15.4062 123.888 15.4062C123.487 15.4062 123.129 15.4936 122.814 15.6683C122.503 15.8388 122.256 16.0774 122.072 16.3842C121.893 16.6911 121.804 17.0447 121.804 17.4453V23H119.081ZM130.412 26.8864C129.53 26.8864 128.774 26.7649 128.143 26.522C127.517 26.2834 127.018 25.9574 126.647 25.544C126.277 25.1307 126.036 24.6662 125.925 24.1506L128.444 23.8118C128.52 24.0078 128.642 24.1911 128.808 24.3615C128.974 24.532 129.194 24.6683 129.466 24.7706C129.743 24.8771 130.08 24.9304 130.476 24.9304C131.069 24.9304 131.556 24.7855 131.94 24.4957C132.328 24.2102 132.522 23.7308 132.522 23.0575V21.2614H132.407C132.287 21.5341 132.108 21.7919 131.87 22.0348C131.631 22.2777 131.324 22.4759 130.949 22.6293C130.574 22.7827 130.127 22.8594 129.607 22.8594C128.87 22.8594 128.199 22.6889 127.593 22.348C126.993 22.0028 126.513 21.4766 126.155 20.7692C125.801 20.0575 125.625 19.1584 125.625 18.0717C125.625 16.9595 125.806 16.0305 126.168 15.2848C126.53 14.5391 127.012 13.9808 127.613 13.6101C128.218 13.2393 128.88 13.054 129.6 13.054C130.15 13.054 130.61 13.1477 130.981 13.3352C131.352 13.5185 131.65 13.7486 131.876 14.0256C132.106 14.2983 132.283 14.5668 132.407 14.831H132.509V13.1818H135.213V23.0959C135.213 23.9311 135.008 24.63 134.599 25.1925C134.19 25.755 133.623 26.1768 132.899 26.4581C132.179 26.7436 131.35 26.8864 130.412 26.8864ZM130.47 20.8139C130.909 20.8139 131.279 20.7053 131.582 20.4879C131.889 20.2663 132.123 19.951 132.285 19.5419C132.451 19.1286 132.534 18.6342 132.534 18.0589C132.534 17.4837 132.453 16.9851 132.292 16.5632C132.13 16.1371 131.895 15.8068 131.588 15.5724C131.282 15.3381 130.909 15.2209 130.47 15.2209C130.022 15.2209 129.645 15.3423 129.338 15.5852C129.032 15.8239 128.799 16.1562 128.642 16.5824C128.484 17.0085 128.405 17.5007 128.405 18.0589C128.405 18.6257 128.484 19.1158 128.642 19.5291C128.804 19.9382 129.036 20.2557 129.338 20.4815C129.645 20.7031 130.022 20.8139 130.47 20.8139ZM141.816 23.1918C140.823 23.1918 139.964 22.9808 139.24 22.5589C138.52 22.1328 137.963 21.5405 137.571 20.782C137.179 20.0192 136.983 19.1349 136.983 18.1293C136.983 17.1151 137.179 16.2287 137.571 15.4702C137.963 14.7074 138.52 14.1151 139.24 13.6932C139.964 13.267 140.823 13.054 141.816 13.054C142.809 13.054 143.665 13.267 144.385 13.6932C145.11 14.1151 145.668 14.7074 146.06 15.4702C146.452 16.2287 146.648 17.1151 146.648 18.1293C146.648 19.1349 146.452 20.0192 146.06 20.782C145.668 21.5405 145.11 22.1328 144.385 22.5589C143.665 22.9808 142.809 23.1918 141.816 23.1918ZM141.828 21.0824C142.28 21.0824 142.657 20.9545 142.96 20.6989C143.262 20.4389 143.49 20.0852 143.644 19.6378C143.801 19.1903 143.88 18.6811 143.88 18.1101C143.88 17.5391 143.801 17.0298 143.644 16.5824C143.49 16.1349 143.262 15.7812 142.96 15.5213C142.657 15.2614 142.28 15.1314 141.828 15.1314C141.373 15.1314 140.989 15.2614 140.678 15.5213C140.371 15.7812 140.139 16.1349 139.981 16.5824C139.828 17.0298 139.751 17.5391 139.751 18.1101C139.751 18.6811 139.828 19.1903 139.981 19.6378C140.139 20.0852 140.371 20.4389 140.678 20.6989C140.989 20.9545 141.373 21.0824 141.828 21.0824Z" fill="white"/>
</svg>
